# xmcd CD database file
#
# Track frame offsets:
#	150
#	13535
#	32790
#	48935
#	64577
#	85880
#	101637
#	117705
#	137865
#	161660
#	183965
#
# Disc length: 2639 seconds
#
# Revision: 0
# Processed by: cddbd v1.5PL3 Copyright (c) Steve Scherf et al.
# Submitted via: CDex 1.50beta10
#
DISCID=910a4d0b
DTITLE=BONNIE PINK - Pink in Red -BONNIE PINK LIVE 2003 "Tonight,the Night" at AKASAKA BLITZ-
DYEAR=2003
DGENRE=Rock
TTITLE0=Your Butterfly
TTITLE1=Over the Brown Bridge
TTITLE2=Home
TTITLE3=Rope Dancer
TTITLE4=Need You
TTITLE5=Present
TTITLE6=僕じゃなかったなら
TTITLE7=犬と月
TTITLE8=April Shower 〜四月の嵐〜
TTITLE9=Tonight,the Night
TTITLE10=Souldiers
EXTD=YEAR: 2003
EXTT0=
EXTT1=
EXTT2=
EXTT3=
EXTT4=
EXTT5=
EXTT6=
EXTT7=
EXTT8=
EXTT9=
EXTT10=
PLAYORDER=
